<?xml version="1.0" encoding="UTF-8" standalone="no"?><!DOCTYPE svg PUBLIC "-//W3C//DTD SVG 1.1//EN" "http://www.w3.org/Graphics/SVG/1.1/DTD/svg11.dtd"><svg width="100%" height="100%" viewBox="0 0 123 123" version="1.1" xmlns="http://www.w3.org/2000/svg" xmlns:xlink="http://www.w3.org/1999/xlink" xml:space="preserve" xmlns:serif="http://www.serif.com/" style="fill-rule:evenodd;clip-rule:evenodd;stroke-linejoin:round;stroke-miterlimit:2;"><g id="planeta"><path d="M36.562,68.319c-0.603,-0.689 -4.264,-0.135 -4.264,-0.135c0,0 1.69,-2.338 1.093,-3.452c-0.253,-0.471 -2.799,-1.341 -3.054,-1.428c-1.316,-0.45 -2.287,-2.398 -4.057,-2.462c-3.816,-0.139 -4.033,-0.919 -5.002,0.042c-1.167,1.158 -1.244,1.102 -2.921,1.09c-1.549,-0.011 -0.854,-1.692 -1.53,-3.001c-1.109,-2.146 -0.647,-4.71 -2.063,-3.167c-3.613,3.935 -2.366,-3.754 1.704,-4.69c2.978,-0.685 2.685,2.758 2.801,3.036c0.565,1.353 1.217,-3.812 1.241,-3.874c1.376,-3.506 4.86,-5.255 4.945,-5.362c0.942,-1.188 1.148,-0.871 2.538,-1.498c1.427,-0.644 0.093,-3.449 2.064,-2.385c3.554,1.919 1.048,-1.79 0.48,-2.459c-2.32,-2.733 -4.096,0.723 -4.319,-0.017c-0.307,-1.018 -0.69,-0.665 -0.691,-0.746c-0.005,-1.199 4.001,1.077 5.081,-3.367c0.137,-0.564 1.609,-0.444 1.898,0.008c1.289,2.018 1.981,2.54 3.901,0.514c2.984,-3.149 9.594,0.276 9.764,0.924c0.36,1.369 -2.487,1.568 -1.37,2.085c1.478,0.685 1.336,0.873 2.796,1.592c3.002,1.477 -0.044,3.459 2.405,5.714c3.056,2.814 2.185,-2.479 3.877,-2.501c0.051,-0.001 3.988,1.51 4.033,1.551c2.268,2.043 4.195,-0.269 4.292,1.88c0.175,3.91 -5.646,-0.523 -6.891,-0.686c-1.162,-0.152 -4.061,1.508 -4.221,1.713c-3.047,3.901 -1.804,4.346 -1.422,9.271c0.217,2.802 3.826,6.517 4.514,6.855c1.23,0.604 1.627,0.608 14.51,-9.104c0.004,0.037 0.587,0.167 0.053,0.562c-10.321,7.639 -11.87,8.987 -12.897,9.449c-1.19,1.4 -1.295,1.217 -3.456,2.991c-0.695,0.553 -0.853,0.388 -1.184,1.229c-2.686,2.868 -13.874,10.04 -11.846,20.466c1.275,2.941 1.835,3.906 5.823,6.306c8.144,4.019 8.502,3.173 9.092,3.691c-0.138,0.086 -0.276,0.171 -0.414,0.257c-3.105,-0.859 -3.268,-0.848 -3.559,-0.827c-0.519,0.219 -0.995,0.534 -1.514,0.753c-25.115,10.607 -57.363,-14.069 -42.948,-46.951l0.361,0.256c0.067,0.1 -0.152,0.251 -0.085,0.351c0.176,0.266 1.389,0.089 0.77,1.374c-0.339,0.705 0.251,2.475 0.5,1.116c0.038,-0.011 0.298,0.197 0.772,-0.517c0.07,-0.106 2.356,-3.544 1.555,0.315c-1.105,5.321 3.893,3.136 6.321,7.872c0.949,1.851 2.96,0.017 3.311,2.453c-0.602,3.24 -0.797,3.164 -1.143,6.479c0.478,4.587 6.085,8.018 6.462,9.829c1.375,6.593 0.774,16.646 7.132,16.887c0.607,-0.499 0.532,-0.652 -0.031,-1.246c-0.706,-0.745 -1.104,-0.562 -1.55,-2.933c-0.349,-1.857 2.264,-5.32 2.63,-5.643c4.268,-3.764 2.529,-5.266 3.745,-5.864c4.656,-2.288 1.875,-4.357 4.428,-7.837c4.384,-5.975 -3.304,-5.435 -4.461,-6.758Z" style="fill:#93989e;fill-opacity:1;"/><path d="M55.979,37.186c0.233,0.188 0.204,0.154 0.467,0.231c0.943,0.89 1.065,0.662 1.936,1.433c0.224,0.203 0.199,0.167 0.443,0.257c0.063,0.053 0.493,0.413 0.76,0.691c0.239,0.249 0.217,0.23 0.496,0.44c0.28,0.241 0.252,0.216 0.509,0.454c0.14,0.101 0.28,0.202 0.421,0.302c0.247,0.232 0.671,0.657 0.728,0.714c0.388,0.516 0.371,0.456 0.8,0.873c0.08,0.08 0.16,0.16 0.241,0.24c0.036,0.041 0.226,0.254 0.45,0.509c0.077,0.083 0.153,0.165 0.23,0.248c0.225,0.247 0.611,0.703 0.663,0.765c0.106,0.139 0.213,0.277 0.319,0.416c0.313,0.412 0.29,0.379 0.656,0.763c0.095,0.151 0.189,0.302 0.284,0.453l0.094,0.167c-0.011,0.038 -0.623,0.124 -0.207,0.699c0.405,0.559 0.435,0.506 0.46,0.559c0.982,2.024 3.973,5.902 2.968,6.86c-12.883,9.712 -13.28,9.708 -14.51,9.104c-0.688,-0.338 -4.297,-4.052 -4.514,-6.855c-0.382,-4.924 -1.625,-5.37 1.422,-9.271c0.16,-0.205 3.059,-1.865 4.221,-1.713c1.245,0.163 7.067,4.596 6.891,0.686c-0.096,-2.149 -2.024,0.164 -4.292,-1.88c-0.046,-0.041 -3.982,-1.551 -4.033,-1.551c-1.692,0.022 -0.821,5.315 -3.877,2.501c-2.449,-2.255 0.597,-4.237 -2.405,-5.714c-1.46,-0.718 -1.317,-0.907 -2.796,-1.592c-1.117,-0.517 1.731,-0.716 1.37,-2.085c-0.17,-0.648 -6.78,-4.073 -9.764,-0.924c-1.92,2.026 -2.613,1.503 -3.901,-0.514c-0.289,-0.452 -1.76,-0.572 -1.898,-0.008c-1.08,4.444 -5.086,2.168 -5.081,3.367c0,0.081 0.383,-0.272 0.691,0.746c0.224,0.74 1.999,-2.716 4.319,0.017c0.568,0.669 3.075,4.378 -0.48,2.459c-1.971,-1.064 -0.637,1.741 -2.064,2.385c-1.39,0.627 -1.596,0.31 -2.538,1.498c-0.085,0.107 -3.569,1.856 -4.945,5.362c-0.024,0.062 -0.675,5.227 -1.241,3.874c-0.116,-0.278 0.177,-3.721 -2.801,-3.036c-4.07,0.936 -5.318,8.625 -1.704,4.69c1.416,-1.543 0.955,1.021 2.063,3.167c0.676,1.309 -0.019,2.99 1.53,3.001c1.676,0.012 1.754,0.067 2.921,-1.09c0.969,-0.961 1.186,-0.181 5.002,-0.042c1.77,0.065 2.741,2.013 4.057,2.462c0.255,0.087 2.801,0.957 3.054,1.428c0.598,1.114 0.057,1.254 0.689,2.408c0.363,0.361 0.377,0.295 0.823,0.526c0.879,0.28 0.881,0.191 1.659,0.654c2.029,1.42 8.845,0.783 4.461,6.758c-2.554,3.48 0.228,5.549 -4.428,7.837c-1.216,0.597 0.523,2.1 -3.745,5.864c-0.366,0.323 -2.98,3.785 -2.63,5.643c0.446,2.371 0.844,2.188 1.55,2.933c0.564,0.595 0.638,0.748 0.031,1.246c-6.358,-0.241 -5.757,-10.294 -7.132,-16.887c-0.378,-1.811 -5.984,-5.242 -6.462,-9.829c0.346,-3.315 0.541,-3.239 1.143,-6.479c-0.351,-2.436 -2.362,-0.602 -3.311,-2.453c-2.429,-4.737 -7.426,-2.551 -6.321,-7.872c0.801,-3.86 -1.485,-0.421 -1.555,-0.315c-0.474,0.713 -0.735,0.506 -0.772,0.517c-0.206,-2.19 0.474,-2.044 2.206,-7.614c0.129,-0.413 0.411,-0.506 0.984,-2.203c0.211,-0.623 -0.862,-0.341 -4.737,6.72c-14.415,32.882 17.833,57.558 42.948,46.951c0.519,-0.219 0.995,-0.534 1.514,-0.753c0.292,-0.021 0.454,-0.032 3.559,0.827c-1.517,0.839 -8.951,5.915 -22.057,4.51c-8.511,-0.913 -17.287,-5.998 -21.125,-10.244c-27.072,-29.954 1.966,-70.926 36.944,-60.197c0.705,0.216 6.284,1.927 8.351,3.908Z" style="fill:#342d2e;fill-opacity:1;"/><path d="M122.88,24.6l0,0.72c-1.373,0.581 -1.764,1.261 -3.015,1.899c-0.158,0.082 -0.316,0.163 -0.474,0.245c-2.885,1.855 -28.283,18.189 -35.574,23.939l-0.942,0.736c-2.546,1.949 -2.515,1.913 -5.014,3.879c-0.49,0.384 -0.98,0.768 -1.471,1.152c-3.126,2.701 -3.117,2.629 -3.383,2.863c-0.397,0.412 -0.794,0.823 -1.192,1.235c-0.076,0.085 -0.152,0.169 -0.227,0.254c-0.278,0.304 -0.912,0.85 -0.202,1.171c-0.97,1.846 -19.166,19.151 -10.278,24.777c2.223,1.407 7.688,-9.021 8.188,-15.107c0.032,-0.393 0.506,-6.157 1.284,-4.762c0.127,0.227 0.969,11.161 -7.686,21.221c-1.611,1.873 -2.965,7.18 8.515,9.911c0.447,0.162 0.413,0.201 0.917,0.097c11.722,1.636 -7.13,0.545 -10.281,0.372c-0.56,-0.076 -1.12,-0.152 -1.68,-0.229l-2.645,-0.452l-0.973,-0.156c0.004,-0.002 0.382,0.057 0.578,-0.326c0.09,-0.176 -7.028,-1.92 -9.185,-2.94c-10.768,-5.092 -6.447,-9.291 -7.653,-10.965c2.539,-6.466 5.672,-10.221 20.933,-21.756c1.545,-1.167 10.042,-7.279 10.669,-8.072c0.086,-0.069 0.173,-0.138 0.259,-0.207l0.207,-0.048c0.27,-0.231 0.235,-0.202 0.508,-0.439c0.154,-0.088 0.308,-0.177 0.463,-0.265l0.201,-0.05c0.253,-0.144 0.506,-0.288 0.759,-0.432c0.158,-0.083 0.316,-0.166 0.474,-0.249c0.274,-0.244 1.097,-0.67 1.196,-0.722c0.071,-0.064 0.487,-0.441 0.974,-0.7c0.845,-0.802 2.637,-1.787 2.88,-1.921c0.482,-0.242 0.433,-0.215 0.948,-0.505l0.255,-0.215c0.811,-0.104 0.694,-0.317 0.95,-0.493c0.178,-0.179 1.094,-0.675 1.192,-0.728c2.648,-1.433 5.73,-3.555 6.212,-3.888c0.077,-0.039 0.486,-0.244 0.973,-0.455l0.242,-0.241c4.429,-2.295 7.491,-4.307 7.953,-4.511c0.237,-0.165 0.474,-0.33 0.711,-0.495c1.786,-0.707 3.2,-1.844 3.838,-2.173c0.076,-0.04 0.474,-0.25 0.957,-0.479c0.162,-0.077 0.325,-0.153 0.487,-0.23c0.24,-0.161 0.48,-0.321 0.721,-0.482c0.159,-0.081 0.318,-0.161 0.477,-0.242c0.159,-0.082 0.317,-0.164 0.476,-0.246c0.153,-0.092 0.306,-0.183 0.459,-0.275l0.251,-0.225c0.185,-0.108 1.607,-0.942 2.385,-1.217l0.032,-0.197c0.315,-0.087 0.629,-0.174 0.944,-0.261l0.254,-0.221c0.159,-0.082 0.318,-0.165 0.477,-0.247c0.152,-0.079 1.496,-0.774 1.922,-0.953c0.37,-0.31 0.902,-0.627 0.984,-0.675c0.086,-0.068 0.172,-0.136 0.258,-0.204c0.224,-0.15 0.239,-0.069 0.481,-0.24c0.161,-0.076 0.322,-0.151 0.483,-0.227c0.037,-0.023 0.28,-0.175 0.473,-0.261c0.156,-0.087 0.312,-0.174 0.469,-0.261c1.362,-0.447 3.301,-2.285 6.606,-3.827Z" style="fill:#832b36;fill-opacity:1;"/><path d="M72.335,62.534c0.278,0.427 0.103,0.45 0.244,0.949l0.075,0.951l0.109,0.972l0.062,1.915c-0.057,2.182 -0.442,16.892 -10.119,25.345l-0.865,0.541c-0.225,0.031 -0.492,-2.059 -0.539,-2.112c-0.352,-0.398 -0.019,-0.4 1.592,-2.272c8.655,-10.06 7.813,-20.994 7.686,-21.221c-0.778,-1.395 -1.252,4.369 -1.284,4.762c-0.5,6.087 -6.027,16.123 -8.15,14.57c-6.895,-5.044 2.935,-15.476 3.899,-16.623c2.207,-2.625 5.666,-6.332 6.341,-7.617c0.463,-0.223 0.444,-0.29 0.95,-0.16Z" style="fill:#3a3434;fill-opacity:1;"/><path d="M101.641,21.788c0.121,0.04 1.153,0.384 1.473,0.595c0.246,0.243 0.222,0.223 0.49,0.444l-0.283,0.394c-0.371,0.622 -0.013,0.58 0.445,1.16c0.026,0.033 3.04,4.088 3.329,4.06c0.164,-0.016 0.244,-0.265 0.408,-0.281l0.211,0.231c0.023,1.41 0.743,0.861 1.353,0.727c0.666,-0.457 0.667,-0.411 0.72,-0.454c0.67,-0.185 0.695,-0.253 0.724,-0.2c0.149,0.271 0.055,0.633 0.204,0.904c-1.913,1.468 -1.899,1.503 -2.089,1.544c-2.302,0.505 -19.277,11.564 -29.694,17.26c-0.258,-0.674 6.751,-4.291 6.864,-4.966c0.243,-0.157 1.176,-1.428 1.419,-1.586c6.669,-4.601 16.049,-11.697 17.308,-12.456c0.566,-0.341 0.423,-0.427 0.388,-0.816c-17.108,12.474 -17.412,12.097 -18.614,13.489c-0.207,-0.106 -0.413,-0.211 -0.62,-0.317c0.323,-0.251 0.309,-0.26 3.995,-3.2c0.257,-0.214 0.514,-0.427 0.771,-0.641c0.255,-0.24 0.648,-0.471 0.708,-0.506c0.865,-0.715 0.842,-0.685 1.711,-1.419c0.457,-0.345 0.914,-0.69 1.371,-1.034c0.401,-0.351 0.368,-0.307 0.745,-0.677c0.247,-0.243 0.225,-0.226 0.247,-0.243c0.126,-0.101 0.122,0.021 0.204,-0.045c0.171,-0.143 0.342,-0.286 0.513,-0.428c0.247,-0.247 0.226,-0.229 0.247,-0.247c0.102,-0.088 0.101,0 0.181,-0.069c1.967,-1.578 1.998,-1.531 2.162,-1.677c0.091,-0.083 0.63,-0.571 1.19,-0.972c0.398,-0.349 0.387,-0.304 0.727,-0.71c0.663,-0.414 0.614,-0.391 1.171,-0.991c0.849,-0.185 1.457,-1.307 1.48,-1.399c0.67,-0.687 0.213,-0.77 -0.071,-1.692c-0.376,-1.84 -0.629,-1.713 -1.776,-3.183c-0.298,-0.382 -0.054,-0.384 0.389,-0.599Z" style="fill:#6f1825;fill-opacity:0.99;"/><path d="M65.473,46.143l0.111,0.101c0.076,0.081 0.151,0.162 0.227,0.242c0.095,0.15 0.19,0.301 0.285,0.451l0.193,0.274c0.214,0.247 0.2,0.225 0.214,0.247c0.119,0.189 0.045,0.183 0.169,0.378c1.002,1.653 1.014,1.6 1.091,1.746c0.193,0.263 0.417,0.671 0.45,0.731c1.028,2.18 1.268,2.463 1.423,2.646c-0.001,0.509 0.083,0.467 0.247,0.925c-0.297,0.775 -0.348,1.093 -0.363,1.192c-0.643,0.418 -0.462,0.625 -7.504,5.972c-2.618,1.988 -24.706,17.042 -22.375,26.917c0.15,0.637 0.148,0.644 0.133,0.699c-0.078,0.28 -0.332,0.012 -0.41,0.292c-2.027,-10.425 9.16,-17.598 11.846,-20.466c0.277,-0.201 0.909,-0.597 0.989,-0.647l0.24,-0.184l-0.045,-0.398c2.161,-1.774 2.266,-1.591 3.456,-2.991c1.027,-0.462 2.576,-1.81 12.897,-9.449c0.534,-0.395 -0.05,-0.524 -0.053,-0.562c1.004,-0.958 -1.986,-4.836 -2.968,-6.86c-0.025,-0.052 -0.055,0.001 -0.46,-0.559c-0.416,-0.575 0.196,-0.66 0.207,-0.699Z" style="fill:#473e44;fill-opacity:0.99;"/><path d="M71.879,54.359l0.209,-0.052c-0.627,0.794 -9.124,6.905 -10.669,8.072c-15.261,11.535 -18.394,15.29 -20.933,21.756c-1.438,5.432 0.898,7.503 3.313,9.559c0.138,0.083 0.062,0.126 1.68,1.108l-0.293,0.46c-3.988,-2.4 -4.547,-3.365 -5.823,-6.306c0.078,-0.281 0.088,0.014 0.167,-0.265c0.015,-0.055 0.017,-0.062 -0.133,-0.699c-2.331,-9.874 20.001,-24.956 22.619,-26.944c7.042,-5.347 6.861,-5.554 7.504,-5.972c0.723,1.054 0.916,0.058 2.358,-0.717Z" style="fill:#936770;fill-opacity:0.99;"/><path d="M107.97,18.873c0.955,-0.083 0.917,0.038 1.628,0.65c0.098,0.232 0.196,0.464 0.295,0.695l0.243,0.248l0.208,0.26c0.427,0.699 0.541,0.514 0.642,0.546c2.299,1.25 -3.325,1.691 -3.56,3.292l-0.222,-0.079c-0.133,-0.031 -0.572,-0.134 -1.712,0.088c-2.526,0.71 0.704,0.124 1.731,0.453c0.408,0.41 0.354,0.456 0.933,0.53c0.056,0.161 0.111,0.322 0.167,0.483c0.085,0.412 0.013,0.394 0.265,0.727l0.06,0.729l-0.156,0.358c-0.532,-0.247 -0.522,-0.35 -1.012,-0.088l-0.032,0.189l0.055,0.204c-0.164,0.016 -0.244,0.265 -0.408,0.281c-0.289,0.028 -3.303,-4.027 -3.329,-4.06c-0.458,-0.58 -0.816,-0.538 -0.445,-1.16l0.283,-0.394c0.211,-0.007 0.422,-0.014 0.633,-0.021c0.713,-0.307 0.704,-0.313 0.768,-0.333l0.676,0.073c0.583,0.664 0.728,0.677 1.26,0.174c0.234,-0.091 0.469,-0.182 0.703,-0.273c0.083,-0.073 0.166,-0.147 0.25,-0.22l0.227,-0.027c0.805,-0.514 0.972,-0.614 0.548,-1.477c-0.493,-0.884 -0.604,-0.808 -0.697,-1.849Z" style="fill:#922c38;fill-opacity:0.98;"/><path d="M40.487,84.135c1.206,1.674 -3.114,5.873 7.653,10.965c2.157,1.02 9.275,2.764 9.185,2.94c-0.196,0.383 -0.574,0.323 -0.578,0.326l-0.235,-0.035c-0.718,-0.105 -1.435,-0.209 -2.153,-0.314c-5.198,-1.262 -6.539,-2.208 -8.879,-3.215c-1.618,-0.982 -1.542,-1.025 -1.68,-1.108c-2.415,-2.055 -4.752,-4.127 -3.313,-9.559Z" style="fill:#34050c;fill-opacity:0.99;"/><path d="M115.804,22.693c0.221,-0.046 1.865,-0.385 2.666,0.91c0.473,0.765 1.317,-0.165 1.352,0.73c-0.641,0.621 -0.589,0.69 -5.45,3.41c-0.634,0.355 -0.722,0.022 -0.67,-0.691c0.075,-0.072 0.151,-0.144 0.226,-0.216l0.153,-0.123c0.141,0.077 0.187,0.597 1.238,-0.126c-0.491,-0.52 -0.749,-1.476 -1.586,-2.467l-0.158,-0.345c0.1,-0.048 -0.034,-0.107 0.054,-0.149c0.055,-0.026 0.052,-0.02 0.707,-0.276c0.16,-0.081 0.32,-0.163 0.479,-0.244c0.162,-0.076 0.325,-0.151 0.487,-0.227c0.166,-0.062 0.333,-0.124 0.499,-0.185Z" style="fill:#8d2030;fill-opacity:0.99;"/><path d="M5.844,52.184c3.875,-7.06 4.947,-7.343 4.737,-6.72c-0.573,1.697 -0.856,1.79 -0.984,2.203c-1.732,5.57 -2.412,5.424 -2.206,7.614c-0.249,1.359 -0.84,-0.412 -0.5,-1.116c0.618,-1.284 -0.594,-1.108 -0.77,-1.374c-0.067,-0.1 0.152,-0.251 0.085,-0.351l-0.361,-0.256Z" style="fill:#6f7076;"/><path d="M113.576,23.775l0.158,0.345c0.837,0.991 1.095,1.947 1.586,2.467c-1.052,0.723 -1.098,0.203 -1.238,0.126l0.083,-0.144c0.326,-0.573 0.107,-0.566 -0.247,-1.054c-1.909,-1.039 -3.039,1.797 -5.555,-0.197c-0.083,-0.24 -0.165,-0.481 -0.248,-0.721c0.542,-0.615 3.054,-1.931 3.564,-1.815c3.152,0.718 -2.513,2.36 -1.343,2.733c0.28,0.089 0.453,0.144 3.24,-1.74Z" style="fill:#822832;fill-opacity:0.98;"/><path d="M104.91,28.348c0.035,0.389 0.178,0.474 -0.388,0.816c-1.258,0.759 -10.639,7.855 -17.308,12.456c-0.243,0.157 -0.485,0.315 -0.728,0.472l-0.19,-0.255c1.202,-1.392 1.506,-1.014 18.614,-13.489Z" style="fill:#993b48;"/><path d="M106.6,29.813l0.156,0.249c-2.799,1.99 -15.862,10.059 -16.346,10.463c-0.105,0.088 -1.218,1.018 -1.423,0.957c-0.164,-0.049 -0.168,-0.342 -0.331,-0.391c0.016,-0.011 15.682,-10.191 17.943,-11.279Z" style="fill:#9d4451;"/><path d="M45.187,95.262l0.293,-0.46c2.34,1.008 3.681,1.953 8.879,3.215c0.257,0.489 0.35,0.558 -0.08,0.936c-0.59,-0.518 -0.948,0.329 -9.092,-3.691Z" style="fill:#4e3e45;fill-opacity:0.89;"/><path d="M110.986,21.273l0.753,-0.063c0.716,0.664 -0.161,1.346 0.705,1.463c0.695,0.094 0.493,0.455 1.175,0.689l0.718,-0.012c-0.655,0.256 -0.653,0.25 -0.707,0.276c-0.089,0.043 0.046,0.101 -0.054,0.149c-2.787,1.884 -2.959,1.829 -3.24,1.74c-1.17,-0.373 4.495,-2.015 1.343,-2.733c-0.51,-0.116 -3.022,1.201 -3.564,1.815c-0.219,0.204 -0.197,0.187 -0.221,0.472c-0.246,-0.265 -0.213,-0.229 -0.468,-0.504c0.235,-1.602 5.859,-2.043 3.56,-3.292Z" style="fill:#702430;fill-opacity:0.04;"/><path d="M102.556,35.559l0.728,0.01c-0.639,0.329 -2.052,1.466 -3.838,2.173c-0.237,0.165 -0.474,0.33 -0.711,0.495c-0.463,0.204 -3.525,2.216 -7.953,4.511l-0.47,0.015c0.087,-0.071 0.175,-0.142 0.262,-0.213c0.157,-0.083 0.314,-0.165 0.471,-0.248c0.355,-0.264 0.354,-0.166 0.731,-0.466c0.157,-0.084 0.314,-0.168 0.47,-0.252c0.088,-0.066 0.176,-0.132 0.264,-0.197c0.154,-0.091 0.309,-0.182 0.463,-0.274l0.208,-0.046c0.274,-0.218 0.24,-0.191 0.52,-0.42c0.463,-0.321 1.773,-1.088 1.929,-1.18c0.154,-0.093 0.308,-0.185 0.462,-0.278c0.271,-0.184 0.678,-0.409 0.738,-0.443c0.154,-0.093 0.309,-0.185 0.463,-0.278c4.608,-3.103 4.885,-2.612 5.263,-2.91Z" style="fill:#b96b78;fill-opacity:0.98;"/><path d="M89.595,43.236l-0.028,0.208c-0.483,0.332 -3.565,2.454 -6.212,3.888c-0.233,0.011 -0.467,0.022 -0.7,0.034c1.049,-0.944 6.372,-3.822 6.941,-4.129Z" style="fill:#b66975;fill-opacity:0.91;"/><path d="M112.453,27.32c1.505,1 -0.027,1.306 -0.957,1.688c-0.56,-0.583 -0.608,-0.724 -0.038,-1.317c0.001,-0.001 -0,-0 0.995,-0.372Z" style="fill:#581f24;fill-opacity:0.99;"/><path d="M116.531,22.232c0.319,-0.017 0.639,-0.033 0.958,-0.05c1.168,1.333 1.099,1.321 1.202,1.429c0.376,0.128 0.333,0.125 0.709,0.028c0.053,0.005 0.658,0.058 0.658,0.058c0.292,0.369 0.173,0.423 -0.236,0.637c-0.036,-0.894 -0.88,0.035 -1.352,-0.73c-0.801,-1.296 -2.446,-0.956 -2.666,-0.91l-0.728,-0.03c0.731,-0.228 0.744,-0.099 1.455,-0.431Z" style="fill:#973544;fill-opacity:0.27;"/><path d="M85.677,41.52c0.207,0.106 0.413,0.211 0.62,0.317l0.19,0.255c-0.112,0.675 -0.287,0.069 -0.029,0.742l-0.781,0.593l-10.487,7.199c0.553,-0.729 10.634,-7.926 9.895,-8.49c0.079,-0.085 0.157,-0.169 0.236,-0.254c0.119,-0.12 0.237,-0.241 0.356,-0.361Z" style="fill:#935d63;fill-opacity:0.98;"/><path d="M79.53,49.266l0.479,0.007c-0.243,0.133 -2.035,1.119 -2.88,1.921l-0.48,-0.005c1.098,-0.919 2.639,-1.787 2.881,-1.923Z" style="fill:#ae6a78;fill-opacity:0.56;"/><path d="M105.493,24.574c1.139,-0.223 1.578,-0.12 1.712,-0.088l0.019,0.542c-1.027,-0.33 -4.257,0.256 -1.731,-0.453Z" style="fill:#b55d64;fill-opacity:1;"/><path d="M111.028,27.74l0.43,-0.049c-0.57,0.593 -0.522,0.734 0.038,1.317c-0.26,0.12 -0.521,0.239 -0.781,0.359c-0.149,-0.271 -0.055,-0.633 -0.204,-0.904c-0.029,-0.053 -0.054,0.015 -0.724,0.2c0.637,-0.61 1.223,-0.074 1.241,-0.923Z" style="fill:#8a5158;fill-opacity:0.29;"/><path d="M104.127,25.716c2.624,3.934 2.521,4.663 0.415,1.507c-0.722,-1.083 -0.851,-1.027 -0.822,-1.135c0.047,-0.178 0.36,-0.194 0.407,-0.372Z" style="fill:#b16771;"/><path d="M98.579,31.145l-0.049,0.188c-0.163,0.146 -0.195,0.099 -2.162,1.677c0.202,-1.117 1.993,-1.784 2.21,-1.865Z" style="fill:#891f34;fill-opacity:0.18;"/><path d="M71.588,61.522c0.284,0.543 0.242,0.517 0.284,0.543c0.225,0.142 0.256,-0.165 0.44,0.021c0.105,0.106 -0.081,0.341 0.024,0.448c-0.506,-0.13 -0.486,-0.063 -0.95,0.16c-0.71,-0.322 -0.075,-0.868 0.202,-1.171Z" style="fill:#714750;fill-opacity:0.2;"/><path d="M108.81,32.224l0.687,-0.049c-0.778,0.275 -2.2,1.108 -2.385,1.217c-0.23,0.02 -0.461,0.041 -0.691,0.061c0.207,-0.163 2.195,-1.134 2.388,-1.228Z" style="fill:#a56a72;fill-opacity:0.53;"/><path d="M114.165,26.569l-0.083,0.144l-0.153,0.123c-0.514,-0.089 -0.494,-0.11 -0.997,0.104c-0.088,-0.053 -0.382,-1.116 1.233,-0.37Z" style="fill:#5b1f24;fill-opacity:0.71;"/><path d="M77.861,56.018c0.296,0.646 -0.7,1.476 -1.471,1.152c0.49,-0.384 0.98,-0.768 1.471,-1.152Z" style="fill:#67232d;fill-opacity:0.15;"/><path d="M112.193,30.346l0.933,-0.051c-0.425,0.179 -1.769,0.874 -1.922,0.953l-0.705,0.028c0.479,-0.346 0.994,-0.302 1.694,-0.931Z" style="fill:#97646b;fill-opacity:0.47;"/><path d="M72.763,65.406c1.196,1.391 0.146,1.667 0.062,1.915l-0.062,-1.915Z" style="fill:#612532;fill-opacity:0.16;"/><path d="M103.099,27.261c-0.024,0.092 -0.631,1.214 -1.48,1.399l-0.214,0.025c0.77,-0.804 0.781,-0.731 1.694,-1.424Z" style="fill:#a04e5b;fill-opacity:0.27;"/><path d="M105.254,28.215c1.48,-0.154 1.107,1.312 0.697,0.961c-0.072,-0.062 -0.167,-0.144 -0.697,-0.961Z" style="fill:#b76d76;"/><path d="M73.007,60.033c0.012,1.07 -0.144,1.173 -1.192,1.235c0.397,-0.412 0.794,-0.823 1.192,-1.235Z" style="fill:#6a2733;fill-opacity:0.15;"/><path d="M94.269,34.517l-0.037,0.203c-0.457,0.345 -0.914,0.69 -1.371,1.034c0.361,-0.939 0.437,-0.901 1.407,-1.237Z" style="fill:#7e172b;fill-opacity:0.15;"/><path d="M82.654,47.366c0.233,-0.011 0.467,-0.022 0.7,-0.034c-0.098,0.053 -1.014,0.549 -1.192,0.728c-0.236,0.008 -0.473,0.016 -0.709,0.025c0.528,-0.477 0.608,-0.273 1.201,-0.719Z" style="fill:#ad6b73;fill-opacity:0.62;"/><path d="M108.668,20.723c0.424,0.863 0.257,0.963 -0.548,1.477c0.245,-0.474 0.511,-1.356 0.548,-1.477Z" style="fill:#842530;fill-opacity:0.14;"/><path d="M106.6,29.813c1.012,-0.299 1.158,1.311 0.584,0.74c-0.037,-0.037 0,0 -0.428,-0.491l-0.156,-0.249Z" style="fill:#ad6772;"/><path d="M107.714,28.391l0.203,0.027c0.087,0.076 0.174,0.152 0.261,0.228c0.356,0.405 0.388,0.302 0.889,0.471c-0.61,0.135 -1.33,0.683 -1.353,-0.727Z" style="fill:#b26873;fill-opacity:0.58;"/><path d="M107.205,24.486l0.222,0.079c0.255,0.275 0.222,0.24 0.468,0.504c0.087,0.163 0.175,0.325 0.262,0.488c-0.579,-0.074 -0.525,-0.12 -0.933,-0.53l-0.019,-0.542Z" style="fill:#d8959a;fill-opacity:0.87;"/><path d="M107.928,18.641l0.659,-0.005c0.703,0.373 0.657,0.361 1.237,0.904l-0.226,-0.017c-0.711,-0.612 -0.673,-0.733 -1.628,-0.65l-0.042,-0.233Z" style="fill:#893945;fill-opacity:0.26;"/><path d="M83.816,51.403c-0.113,0.388 0.068,0.44 -0.219,0.749c-0.294,0.317 -0.321,0.142 -0.723,-0.013l0.942,-0.736Z" style="fill:#6b202e;fill-opacity:0.15;"/><path d="M81.453,48.085c0.236,-0.008 0.473,-0.016 0.709,-0.025c-0.256,0.176 -0.139,0.39 -0.95,0.493l-0.711,0.024c0.452,-0.296 0.485,-0.135 0.952,-0.493Z" style="fill:#aa6a72;fill-opacity:0.59;"/><path d="M52.395,67.261l0.045,0.398l-0.24,0.184c-0.08,0.05 -0.712,0.446 -0.989,0.647c0.331,-0.841 0.489,-0.676 1.184,-1.229Z" style="fill:#5a5d66;"/><path d="M103.509,35.079l0.732,0.012c-0.483,0.23 -0.881,0.439 -0.957,0.479l-0.728,-0.01c0.08,-0.031 0.699,-0.273 0.953,-0.481Z" style="fill:#b16c77;fill-opacity:0.65;"/><path d="M104.737,34.406c0.237,-0.009 0.475,-0.019 0.712,-0.028c-0.24,0.161 -0.48,0.321 -0.721,0.482l-0.733,-0.032c0.061,-0.031 0.483,-0.242 0.742,-0.421Z" style="fill:#b3717c;fill-opacity:0.66;"/><path d="M113.632,29.623l0.478,-0.003c-0.082,0.049 -0.614,0.366 -0.984,0.675l-0.933,0.051c0.812,-0.228 0.822,-0.134 1.439,-0.723Z" style="fill:#865a5f;fill-opacity:0.32;"/><path d="M76.65,51.19l0.48,0.005c-0.487,0.259 -0.903,0.635 -0.974,0.7l-0.257,-0.021c0.223,-0.576 0.41,-0.356 0.75,-0.684Z" style="fill:#ae6d77;fill-opacity:0.59;"/><path d="M75.899,51.874l0.257,0.021c-0.099,0.051 -0.923,0.477 -1.196,0.722l-0.236,0.008c0.512,-0.483 0.532,-0.389 1.176,-0.751Z" style="fill:#a05e68;fill-opacity:0.58;"/><path d="M105.68,22.545c0.083,-0.003 0.467,-0.019 1.022,0.187l0.238,-0.013c-0.533,0.503 -0.677,0.489 -1.26,-0.174Z" style="fill:#8a2332;fill-opacity:0.18;"/><path d="M107.48,27.766c0.49,-0.262 0.48,-0.159 1.012,0.088c-0.225,0.282 -0.204,0.263 -0.225,0.282c-0.122,0.114 -0.136,0.004 -0.227,0.09c-0.15,-0.394 -0.126,-0.461 -0.56,-0.46Z" style="fill:#641620;fill-opacity:0.73;"/><path d="M99.721,30.361c-0.56,0.401 -1.099,0.889 -1.19,0.972l0.049,-0.188c0.089,-0.125 0.073,-0.738 1.142,-0.784Z" style="fill:#90293a;fill-opacity:0.24;"/><path d="M110.315,20.265c0.4,0.884 0.521,0.751 1.424,0.945l-0.753,0.063c-0.101,-0.032 -0.215,0.152 -0.642,-0.546l-0.028,-0.462Z" style="fill:#883742;fill-opacity:0.18;"/><path d="M101.641,21.788c0.789,0.147 0.901,-0.13 1.473,0.595c-0.319,-0.211 -1.352,-0.555 -1.473,-0.595Z" style="fill:#83333f;fill-opacity:0.24;"/><path d="M80.255,48.809l0.703,-0.041c-0.515,0.291 -0.467,0.263 -0.948,0.505l-0.479,-0.007c0.414,-0.214 0.394,-0.177 0.724,-0.457Z" style="fill:#9d5c68;fill-opacity:0.59;"/><path d="M108.115,24.597c0.083,0.24 0.165,0.481 0.248,0.721c-0.013,0.241 -0.027,0.481 -0.04,0.722c-0.056,-0.161 -0.111,-0.322 -0.167,-0.483c-0.087,-0.163 -0.175,-0.325 -0.262,-0.488c0.023,-0.285 0.001,-0.268 0.221,-0.472Z" style="fill:#813940;fill-opacity:0.46;"/><path d="M101.405,28.684l0.214,-0.025c-0.558,0.601 -0.509,0.577 -1.171,0.991c0.006,-0.005 0.88,-0.889 0.957,-0.967Z" style="fill:#853441;fill-opacity:0.28;"/><path d="M90.182,37.657l0.26,0.022c-0.257,0.214 -0.514,0.427 -0.771,0.641c0.034,-0.47 0.046,-0.462 0.511,-0.663Z" style="fill:#7e1629;fill-opacity:0.18;"/><path d="M112.205,27.255l0.247,0.064c-0.995,0.371 -0.994,0.371 -0.995,0.372l-0.43,0.049c0.573,-0.326 0.516,-0.425 1.178,-0.484Z" style="fill:#853f49;fill-opacity:0.29;"/><path d="M91.151,37.173c-0.06,0.035 -0.454,0.266 -0.708,0.506l-0.26,-0.022c0.323,-0.162 0.646,-0.323 0.968,-0.485Z" style="fill:#6d1a28;fill-opacity:0.16;"/><path d="M109.77,31.738c0.234,-0.007 0.469,-0.014 0.703,-0.021c-0.315,0.087 -0.629,0.174 -0.944,0.261l-0.461,0.045c0.324,-0.263 0.307,-0.192 0.702,-0.285Z" style="fill:#945d67;fill-opacity:0.51;"/><path d="M90.047,42.977l0.493,0.012c-0.487,0.212 -0.896,0.417 -0.973,0.455l0.028,-0.208c0.151,-0.086 0.301,-0.173 0.452,-0.259Z" style="fill:#ad6571;fill-opacity:0.74;"/><path d="M103.995,34.828l0.733,0.032c-0.162,0.077 -0.325,0.153 -0.487,0.23l-0.732,-0.012c0.162,-0.084 0.324,-0.167 0.485,-0.251Z" style="fill:#b16d79;fill-opacity:0.62;"/><path d="M107.48,27.766c0.433,-0.002 0.41,0.066 0.56,0.46l0.138,0.42c-0.087,-0.076 -0.174,-0.152 -0.261,-0.228c-0.21,-0.304 -0.158,-0.286 -0.468,-0.463l0.032,-0.189Z" style="fill:#ae5361;fill-opacity:0.27;"/><path d="M114.156,23.001c0.353,0.105 0.308,0.1 0.66,0.104c-0.16,0.081 -0.32,0.163 -0.479,0.244l-0.718,0.012c0.291,-0.159 0.215,-0.199 0.537,-0.361Z" style="fill:#aa5664;fill-opacity:0.31;"/><path d="M103.113,22.383c0.617,0.335 0.643,0.249 0.69,0.286c0.144,0.046 0.289,0.091 0.433,0.137c-0.211,0.007 -0.422,0.014 -0.633,0.021c-0.268,-0.221 -0.244,-0.2 -0.49,-0.444Z" style="fill:#a0515a;fill-opacity:0.33;"/><path d="M105.685,33.89c0.239,0 0.478,0.001 0.716,0.001c-0.159,0.082 -0.317,0.164 -0.476,0.246c-0.24,-0.001 -0.48,-0.003 -0.719,-0.004c0.16,-0.081 0.319,-0.162 0.479,-0.243Z" style="fill:#a46772;fill-opacity:0.54;"/><path d="M100.448,29.651c-0.34,0.407 -0.329,0.361 -0.727,0.71c0.173,-0.325 -0.048,-0.593 0.727,-0.71Z" style="fill:#963443;fill-opacity:0.23;"/><path d="M94.977,34.043c-0.377,0.37 -0.343,0.326 -0.745,0.677l0.037,-0.203c0.271,-0.341 0.171,-0.475 0.708,-0.474Z" style="fill:#852336;fill-opacity:0.25;"/><path d="M115.076,22.663l0.728,0.03c-0.166,0.062 -0.333,0.124 -0.499,0.185c-0.239,0.003 -0.478,0.006 -0.717,0.01c0.163,-0.075 0.325,-0.15 0.488,-0.225Z" style="fill:#a53a4b;fill-opacity:0.24;"/><path d="M106.16,33.65c0.111,-0.002 0.056,-0.032 0.22,-0.035c0.038,-0.001 0,0 0.48,0.001c-0.153,0.092 -0.306,0.183 -0.459,0.275c-0.239,-0 -0.478,-0.001 -0.716,-0.001c0.158,-0.08 0.317,-0.16 0.475,-0.239Z" style="fill:#a3656e;fill-opacity:0.56;"/><path d="M105.207,34.133c0.24,0.001 0.48,0.003 0.719,0.004c-0.159,0.081 -0.318,0.161 -0.477,0.242c-0.237,0.009 -0.475,0.019 -0.712,0.028c0.157,-0.091 0.313,-0.182 0.47,-0.274Z" style="fill:#a16771;fill-opacity:0.55;"/><path d="M110.499,31.277l0.705,-0.028c-0.159,0.082 -0.318,0.165 -0.477,0.247c-0.233,0.016 -0.465,0.032 -0.698,0.048c0.157,-0.089 0.314,-0.178 0.47,-0.267Z" style="fill:#9a5b67;fill-opacity:0.47;"/><path d="M61.738,41.709c0.544,0.306 0.583,0.244 0.8,0.873c-0.428,-0.417 -0.412,-0.357 -0.8,-0.873Z" style="fill:#654f54;fill-opacity:0.26;"/><path d="M64.44,44.76c0.882,0.235 0.654,0.759 0.656,0.763c-0.365,-0.384 -0.343,-0.35 -0.656,-0.763Z" style="fill:#704b55;fill-opacity:0.22;"/><path d="M105.004,22.473c-0.064,0.02 -0.055,0.026 -0.768,0.333c-0.144,-0.046 -0.289,-0.091 -0.433,-0.137c0.602,-0.239 0.587,-0.155 1.201,-0.196Z" style="fill:#86303a;fill-opacity:0.24;"/><path d="M114.156,23.001l0.431,-0.113c0.239,-0.003 0.478,-0.006 0.717,-0.01c-0.162,0.076 -0.325,0.151 -0.487,0.227c-0.353,-0.004 -0.307,0.001 -0.66,-0.104Z" style="fill:#b14759;fill-opacity:0.29;"/><path d="M113.928,26.836c-0.075,0.072 -0.151,0.144 -0.226,0.216c-0.257,-0.038 -0.514,-0.075 -0.771,-0.113c0.502,-0.214 0.482,-0.193 0.997,-0.104Z" style="fill:#591f24;fill-opacity:0.42;"/><path d="M109.824,19.54c0.076,0.083 0.152,0.167 0.228,0.25c0.028,0.226 0.056,0.451 0.084,0.677l-0.243,-0.248c-0.023,-0.226 -0.046,-0.452 -0.068,-0.679Z" style="fill:#ab656e;fill-opacity:0.34;"/><path d="M110.029,31.544c0.233,-0.016 0.465,-0.032 0.698,-0.048l-0.254,0.221c-0.234,0.007 -0.469,0.014 -0.703,0.021c0.086,-0.065 0.173,-0.129 0.259,-0.194Z" style="fill:#945b66;fill-opacity:0.54;"/><path d="M106.421,33.452c0.23,-0.02 0.461,-0.041 0.691,-0.061l-0.251,0.225c-0.48,-0.001 -0.442,-0.002 -0.48,-0.001c-0.164,0.003 -0.109,0.033 -0.22,0.035c0.087,-0.066 0.174,-0.132 0.261,-0.198Z" style="fill:#a2686f;fill-opacity:0.5;"/><path d="M110.052,19.79c0.088,0.158 0.175,0.317 0.263,0.475l0.028,0.462l-0.208,-0.26c-0.028,-0.226 -0.056,-0.451 -0.084,-0.677Z" style="fill:#9d535d;fill-opacity:0.25;"/><path d="M74.25,52.874l0.236,-0.008c-0.253,0.144 -0.506,0.288 -0.759,0.432c0.284,-0.237 0.254,-0.212 0.523,-0.424Z" style="fill:#8a4b53;fill-opacity:0.58;"/><path d="M69.637,52.959c0.006,0.021 0.223,-0.083 0.247,0.925c-0.164,-0.459 -0.248,-0.416 -0.247,-0.925Z" style="fill:#6e4651;fill-opacity:0.24;"/><path d="M109.598,19.523l0.226,0.017c0.023,0.226 0.046,0.452 0.068,0.679c-0.098,-0.232 -0.196,-0.464 -0.295,-0.695Z" style="fill:#b8737b;fill-opacity:0.49;"/><path d="M99.446,37.742c-0.237,0.165 -0.474,0.33 -0.711,0.495c0.237,-0.165 0.474,-0.33 0.711,-0.495Z" style="fill:#ac5867;fill-opacity:0.96;"/><path d="M107.182,22.481l0.461,-0.034c-0.234,0.091 -0.469,0.182 -0.703,0.273l-0.238,0.013c0.16,-0.084 0.32,-0.168 0.48,-0.252Z" style="fill:#84303a;fill-opacity:0.24;"/><path d="M108.588,26.767c0.323,0.298 0.347,0.347 0.06,0.729l-0.06,-0.729Z" style="fill:#a44f5a;fill-opacity:0.25;"/><path d="M90.312,42.763l0.47,-0.015l-0.242,0.241l-0.493,-0.012c0.088,-0.071 0.177,-0.143 0.265,-0.214Z" style="fill:#b66b78;fill-opacity:0.56;"/><path d="M67.763,49.583c0.396,0.263 0.276,0.31 0.45,0.731c-0.033,-0.06 -0.257,-0.467 -0.45,-0.731Z" style="fill:#764854;fill-opacity:0.25;"/><path d="M116.531,22.232c0.484,-0.113 0.444,-0.124 0.958,-0.05c-0.319,0.017 -0.639,0.033 -0.958,0.05Z" style="fill:#651321;fill-opacity:0.11;"/><path d="M78.851,48.139c-0.352,0.285 -0.333,0.255 -0.716,0.486c0.345,-0.307 0.335,-0.271 0.716,-0.486Z" style="fill:#713c47;fill-opacity:0.16;"/><path d="M74.724,52.625l0.236,-0.008c-0.158,0.083 -0.316,0.166 -0.474,0.249l-0.236,0.008c0.158,-0.083 0.316,-0.166 0.474,-0.249Z" style="fill:#91565d;fill-opacity:0.5;"/><path d="M109.068,32.023l0.461,-0.045l-0.032,0.197l-0.687,0.049c0.086,-0.067 0.172,-0.134 0.259,-0.201Z" style="fill:#965f68;fill-opacity:0.46;"/><path d="M107.448,27.955c0.31,0.177 0.258,0.158 0.468,0.463l-0.203,-0.027l-0.211,-0.231l-0.055,-0.204Z" style="fill:#c6757e;fill-opacity:0.49;"/><path d="M71.408,98.733c0.306,0.032 0.611,0.065 0.917,0.097c-0.504,0.104 -0.469,0.065 -0.917,-0.097Z" style="fill:#8c4653;fill-opacity:0.12;"/><path d="M95.941,33.327c-0.171,0.143 -0.342,0.286 -0.513,0.428c0.032,-0.305 0.13,-0.231 0.513,-0.428Z" style="fill:#7d1a2d;fill-opacity:0.27;"/><path d="M59.584,39.798c0.165,0.147 0.331,0.293 0.496,0.44c-0.279,-0.21 -0.257,-0.19 -0.496,-0.44Z" style="fill:#6e545a;fill-opacity:0.24;"/><path d="M107.893,22.227c-0.083,0.073 -0.166,0.147 -0.25,0.22l-0.461,0.034c0.338,-0.182 0.303,-0.207 0.711,-0.254Z" style="fill:#972a3d;fill-opacity:0.2;"/><path d="M66.29,47.211c0.362,0.208 0.445,0.195 0.383,0.626c-0.123,-0.196 -0.05,-0.189 -0.169,-0.378c-0.014,-0.022 -0,-0 -0.214,-0.247Z" style="fill:#6a4a53;fill-opacity:0.25;"/><path d="M65.537,45.812c0.092,0.225 0.183,0.449 0.275,0.674c-0.076,-0.081 -0.151,-0.162 -0.227,-0.242l-0.048,-0.432Z" style="fill:#674951;fill-opacity:0.24;"/><path d="M107.928,18.641c0.277,-0.253 0.284,-0.155 0.659,-0.005l-0.659,0.005Z" style="fill:#641a28;fill-opacity:0.1;"/><path d="M93.702,40.648c-0.28,0.229 -0.246,0.202 -0.52,0.42c0.173,-0.14 0.347,-0.28 0.52,-0.42Z" style="fill:#9b4c5e;fill-opacity:0.31;"/><path d="M72.579,63.483c0.16,0.463 0.187,0.433 0.075,0.951l-0.075,-0.951Z" style="fill:#613b43;fill-opacity:0.37;"/><path d="M73.064,53.613c-0.273,0.237 -0.239,0.208 -0.508,0.439c0.169,-0.146 0.339,-0.293 0.508,-0.439Z" style="fill:#823d4a;fill-opacity:0.35;"/><path d="M55.979,37.186c0.156,0.077 0.311,0.154 0.467,0.231c-0.263,-0.078 -0.234,-0.044 -0.467,-0.231Z" style="fill:#744b54;fill-opacity:0.22;"/><path d="M58.382,38.851c0.148,0.086 0.295,0.171 0.443,0.257c-0.244,-0.09 -0.218,-0.054 -0.443,-0.257Z" style="fill:#754953;fill-opacity:0.23;"/><path d="M114.368,29.416c-0.086,0.068 -0.172,0.136 -0.258,0.204l-0.478,0.003c0.245,-0.069 0.491,-0.138 0.736,-0.207Z" style="fill:#56393c;fill-opacity:0.24;"/><path d="M62.778,42.822c0.129,0.108 0.258,0.217 0.388,0.325l0.062,0.184c-0.223,-0.255 -0.413,-0.468 -0.45,-0.509Z" style="fill:#6d4e57;fill-opacity:0.32;"/><path d="M115.332,28.949c-0.161,0.076 -0.322,0.151 -0.483,0.227c0.161,-0.076 0.322,-0.151 0.483,-0.227Z" style="fill:#643b40;fill-opacity:0.36;"/><path d="M91.045,42.302c-0.157,0.083 -0.314,0.165 -0.471,0.248c0.157,-0.083 0.314,-0.165 0.471,-0.248Z" style="fill:#964858;fill-opacity:0.3;"/><path d="M65.319,45.781l0.218,0.031l0.048,0.432l-0.111,-0.101l-0.094,-0.167l-0.06,-0.195Z" style="fill:#6e4751;fill-opacity:0.3;"/><path d="M72.348,54.1c-0.086,0.069 -0.173,0.138 -0.259,0.207l-0.209,0.052c0.156,-0.086 0.312,-0.173 0.469,-0.259Z" style="fill:#79404a;fill-opacity:0.34;"/><path d="M118.691,23.611c0.236,0.009 0.473,0.018 0.709,0.028c-0.377,0.098 -0.333,0.1 -0.709,-0.028Z" style="fill:#933645;fill-opacity:0.22;"/><path d="M92.247,41.584c-0.157,0.084 -0.314,0.168 -0.47,0.252c0.157,-0.084 0.314,-0.168 0.47,-0.252Z" style="fill:#864d57;fill-opacity:0.33;"/><path d="M97.294,38.47c-0.154,0.093 -0.309,0.185 -0.463,0.278c0.154,-0.093 0.309,-0.185 0.463,-0.278Z" style="fill:#9c656f;fill-opacity:0.26;"/><path d="M66.041,46.739c0.006,0.008 0.188,-0.17 0.249,0.472l-0.193,-0.274l-0.056,-0.198Z" style="fill:#614e55;fill-opacity:0.32;"/><path d="M63.166,43.147c0.21,0.236 0.239,0.19 0.292,0.432c-0.077,-0.083 -0.153,-0.165 -0.23,-0.248l-0.062,-0.184Z" style="fill:#625055;fill-opacity:0.29;"/><path d="M73.526,53.348c-0.154,0.088 -0.308,0.177 -0.463,0.265c0.154,-0.088 0.308,-0.177 0.463,-0.265Z" style="fill:#6c3a43;fill-opacity:0.38;"/><path d="M61.841,92.838c0.225,-0.031 0.449,-0.061 0.674,-0.092c-0.337,0.105 -0.306,0.131 -0.674,0.092Z" style="fill:#2e1b21;fill-opacity:0.49;"/><path d="M116.274,28.427c-0.156,0.087 -0.312,0.174 -0.469,0.261c0.156,-0.087 0.312,-0.174 0.469,-0.261Z" style="fill:#5e3b3e;fill-opacity:0.4;"/><path d="M96.093,39.19c-0.154,0.093 -0.308,0.185 -0.462,0.278c0.154,-0.093 0.308,-0.185 0.462,-0.278Z" style="fill:#9a5261;fill-opacity:0.28;"/><path d="M60.589,40.692c0.14,0.101 0.28,0.202 0.421,0.302c-0.14,-0.101 -0.28,-0.202 -0.421,-0.302Z" style="fill:#615154;fill-opacity:0.3;"/><path d="M92.974,41.113c-0.154,0.091 -0.309,0.182 -0.463,0.274c0.154,-0.091 0.309,-0.182 0.463,-0.274Z" style="fill:#874b57;fill-opacity:0.34;"/><path d="M65.811,46.486c0.076,0.084 0.153,0.169 0.229,0.253l0.056,0.198c-0.095,-0.15 -0.19,-0.301 -0.285,-0.451Z" style="fill:#6c4953;fill-opacity:0.35;"/><path d="M65.095,45.523c0.075,0.086 0.149,0.172 0.224,0.258l0.06,0.195c-0.095,-0.151 -0.189,-0.302 -0.284,-0.453Z" style="fill:#624e53;fill-opacity:0.35;"/><path d="M64.121,44.344c0.106,0.139 0.213,0.277 0.319,0.416c-0.106,-0.139 -0.213,-0.277 -0.319,-0.416Z" style="fill:#615759;fill-opacity:0.34;"/><path d="M119.864,27.219c-0.158,0.082 -0.316,0.163 -0.474,0.245c0.158,-0.082 0.316,-0.163 0.474,-0.245Z" style="fill:#6e2e3b;fill-opacity:0.18;"/></g></svg>